<?xml version="1.0" encoding="utf-8"?>
<svg xmlns="http://www.w3.org/2000/svg" width="1174" height="128" viewBox="0 0 1174 128" fill="none">
  <!-- HERE wordmark (city-block grid) -->
  <g fill="#ffffff" fill-rule="evenodd">
    <path d="M0 0 H34 V47 H74 V0 H108 V128 H74 V81 H34 V128 H0 Z"/>
    <path transform="translate(134,0)" d="M0 0 H96 V34 H34 V47 H82 V81 H34 V94 H96 V128 H0 Z"/>
    <path transform="translate(256,0)" d="M0 0 H104 V92 H70 L104 128 H0 Z M34 34 H70 V58 H34 Z"/>
    <path transform="translate(386,0)" d="M0 0 H96 V34 H34 V47 H82 V81 H34 V94 H96 V128 H0 Z"/>
  </g>
  <!-- by -->
  <text x="542" y="90" font-family="Arial, Helvetica, sans-serif" font-size="58" font-weight="500" fill="#ffffff" fill-opacity="0.7">by</text>
  <!-- official Headout balloon + wordmark -->
  <g transform="translate(662,28)" fill="#ffffff">
    <path d="M118.732 26.2211C115.617 6.59882 90.319 -2.34044 66.6733 1.39761C54.4148 3.3418 38.3205 11.5194 25.9117 20.599C25.5111 20.0378 24.8501 19.3563 23.8186 18.9354C21.8756 18.1437 1.73521 16.7306 0.222922 20.0077C-1.27935 23.2647 5.20044 35.9019 8.01469 38.8783C7.11333 40.7424 6.73276 42.4561 6.96311 43.9292C7.20347 45.4325 8.09481 46.9457 9.50695 48.4389C7.7543 52.187 5.51091 66.1371 7.94459 68.7627C10.3983 71.4084 29.1166 63.8421 30.719 62.4892C31.7005 61.6574 32.1111 60.6452 32.2814 59.9738C38.3906 61.8378 45.0607 63.311 51.6206 64.2029L56.7583 69.2738C58.4609 70.9574 60.7444 71.9396 63.138 71.9797C65.6818 72.0298 69.3874 71.8995 73.9543 71.1779C79.1422 70.3562 83.8593 69.0233 86.964 68.0211C89.3275 67.2595 91.2905 65.5959 92.4423 63.3912L95.1363 58.1899C109.969 51.2751 120.895 39.9106 118.732 26.2211ZM70.1886 9.63536C89.9585 6.4986 105.394 13.979 110.572 22.9483C103.521 20.6233 93.3636 17.813 72.1015 21.1802C51.5104 24.4473 33.0024 31.0615 21.4049 36.1825C29.8877 27.5439 49.4373 12.9224 70.1886 9.63536ZM75.1862 55.5743C54.0142 58.9315 31.1496 50.9043 21.4049 45.663C33.8938 46.6351 54.565 47.1562 75.6869 43.809C93.594 40.9729 105.524 35.8661 111.934 31.5568C109.47 41.4582 95.1263 52.4075 75.1962 55.5643L75.1862 55.5743Z"/>
    <path d="M147.029 71.9907L147.404 1.04977H158.444L158.095 28.8529C160.859 21.4546 166.266 17.3571 174.662 17.3571C186.392 17.3571 193.518 24.983 193.51 39.3244L193.491 71.9907H182.105L182.124 39.8935C182.129 31.4708 178.566 27.0318 171.206 27.0318C162.811 27.0318 158.092 33.9748 158.084 46.2674L158.07 71.9907H147.029Z"/>
    <path d="M228.003 71.9969C211.328 71.9969 200.984 61.0701 200.994 44.5662C201.003 27.9485 212.165 16.4526 227.576 16.4526C243.561 16.4526 253.1 27.0379 253.09 43.9971L253.088 48.0946H212.262C212.946 57.3141 218.808 62.8912 228.009 62.8912C237.209 62.8912 241.237 58.4523 243.31 53.2165L253.313 57.0864C249.628 65.3953 241.919 71.9969 228.003 71.9969ZM212.037 39.6719H241.478C241.023 30.4525 235.851 25.5582 227.34 25.5582C219.175 25.5582 213.192 30.9078 212.037 39.6719Z"/>
    <path d="M277.92 71.9961C266.305 71.9961 259.178 65.736 259.184 56.5165C259.191 44.4516 268.277 41.7199 280.354 39.1021C289.556 37.1671 295.191 36.598 296.343 33.6387L296.343 32.842C296.346 28.403 293.013 24.9884 284.733 24.9884C276.682 24.9884 272.31 28.6306 271.847 34.6631L271.846 35.346H260.461C260.813 23.2811 270.477 15.9966 284.853 15.9966C298.768 15.9966 307.045 22.1429 307.037 35.8013L307.022 62.3214L307.132 70.6302H296.207L296.211 62.549C292.527 68.9229 285.74 71.9961 277.92 71.9961ZM279.995 63.4596C287.93 63.4596 295.408 59.4759 296.334 49.0044L296.338 42.4029C293.001 44.6793 287.251 45.5898 281.96 46.8418C275.749 48.4353 270.687 50.3703 270.684 56.0613C270.682 60.5003 274.015 63.4596 279.995 63.4596Z"/>
    <path d="M337.426 71.9957C323.511 71.9957 313.051 61.6381 313.061 44.2236C313.071 27.1506 323.428 15.9962 337.573 15.9962C345.049 15.9962 351.142 19.5247 355.049 25.2157L355.316 3.66145e-05H366.357L366.062 70.8575H355.022L355.027 63.004C351.228 68.695 345.016 71.9957 337.426 71.9957ZM340.307 62.4348C349.622 62.4348 355.606 54.9227 355.613 44.2236L355.613 43.3131C355.619 32.7278 349.873 25.5571 340.328 25.5571C331.128 25.5571 324.914 32.2725 324.907 43.8822L324.906 44.6789C324.9 56.1747 330.991 62.4348 340.307 62.4348Z"/>
    <path d="M400.94 71.9969C384.954 71.9969 373.921 60.7287 373.93 44.3386C373.94 27.9485 385.217 16.4526 401.202 16.4526C417.188 16.4526 428.336 27.9485 428.327 44.3386C428.317 60.501 416.925 71.9969 400.94 71.9969ZM400.945 62.5498C410.721 62.5498 416.935 55.6068 416.941 44.68L416.941 44.2247C416.948 32.9566 410.857 25.8997 401.197 25.8997C391.536 25.8997 385.322 32.9566 385.316 44.2247L385.315 44.68C385.309 55.7206 391.285 62.5498 400.945 62.5498Z"/>
    <path d="M453.616 71.9974C441.426 71.9974 434.185 63.6886 434.193 50.0302L434.212 17.3638H445.597L445.579 49.461C445.574 57.7699 449.251 62.3227 456.612 62.3227C465.582 62.3227 469.726 54.6968 469.733 43.0871L469.748 17.3638H481.018L480.987 71.0869H469.717L469.722 61.8674C466.728 68.469 461.436 71.9974 453.616 71.9974Z"/>
    <path d="M501.839 71.9998C491.949 71.5445 489.422 67.1055 489.311 58.569L489.329 27.8376L489.378 24.3691L489.328 20.9178L489.335 18.2767L489.341 7.80523L500.27 1.08984L500.26 18.2767H511.99L511.985 27.8376H500.255L500.238 57.2032C500.236 60.6178 501.615 62.2113 505.065 62.2113H511.505L511.499 71.9998H501.839Z"/>
  </g>
</svg>
